<svg width="12" height="13" viewBox="0 0 12 13" fill="none" xmlns="http://www.w3.org/2000/svg">
<path d="M11.05 2.6H8.45V1.95C8.45 1.43283 8.24455 0.936838 7.87886 0.571142C7.51316 0.205446 7.01717 0 6.5 0H5.2C4.68283 0 4.18684 0.205446 3.82114 0.571142C3.45545 0.936838 3.25 1.43283 3.25 1.95V2.6H0.65C0.477609 2.6 0.312279 2.66848 0.190381 2.79038C0.0684819 2.91228 0 3.07761 0 3.25C0 3.42239 0.0684819 3.58772 0.190381 3.70962C0.312279 3.83152 0.477609 3.9 0.65 3.9H1.3V11.05C1.3 11.5672 1.50545 12.0632 1.87114 12.4289C2.23684 12.7946 2.73283 13 3.25 13H8.45C8.96717 13 9.46316 12.7946 9.82886 12.4289C10.1946 12.0632 10.4 11.5672 10.4 11.05V3.9H11.05C11.2224 3.9 11.3877 3.83152 11.5096 3.70962C11.6315 3.58772 11.7 3.42239 11.7 3.25C11.7 3.07761 11.6315 2.91228 11.5096 2.79038C11.3877 2.66848 11.2224 2.6 11.05 2.6ZM4.55 1.95C4.55 1.77761 4.61848 1.61228 4.74038 1.49038C4.86228 1.36848 5.02761 1.3 5.2 1.3H6.5C6.67239 1.3 6.83772 1.36848 6.95962 1.49038C7.08152 1.61228 7.15 1.77761 7.15 1.95V2.6H4.55V1.95ZM9.1 11.05C9.1 11.2224 9.03152 11.3877 8.90962 11.5096C8.78772 11.6315 8.62239 11.7 8.45 11.7H3.25C3.07761 11.7 2.91228 11.6315 2.79038 11.5096C2.66848 11.3877 2.6 11.2224 2.6 11.05V3.9H9.1V11.05Z" fill="#FF5E7B"/>
</svg>
